<svg width="960" height="960" xmlns="http://www.w3.org/2000/svg" fill="#1f1f1f">
 <g>
  <title>Layer 1</title>
  <path d="m200,-280q-17,0 -28.5,-11.5t-11.5,-28.5l0,-80l-80,0l0,-160l80,0l0,-80q0,-17 11.5,-28.5t28.5,-11.5l640,0q17,0 28.5,11.5t11.5,28.5l0,320q0,17 -11.5,28.5t-28.5,11.5l-640,0zm40,-80l560,0l0,-240l-560,0l0,240z" id="svg_1"/>
  <g transform="rotate(180, 480, 480)">
   <path d="m200,680q-17,0 -28.5,-11.5t-11.5,-28.5l0,-80l-80,0l0,-160l80,0l0,-80q0,-17 11.5,-28.5t28.5,-11.5l640,0q17,0 28.5,11.5t11.5,28.5l0,320q0,17 -11.5,28.5t-28.5,11.5l-640,0zm40,-80l560,0l0,-240l-560,0l0,240z"/>
  </g>
 </g>

</svg>